# xmcd
#
# Track frame offsets: 
#        150
#        29240
#        56792
#        99135
#        128865
#        172407
#        201837
#        249360
#        273910
#
# Disc length: 4473 seconds
#
# Revision: 2
# Processed by: cddbd v1.5.1PL0 Copyright (c) Steve Scherf et al.
# Submitted via: ExactAudioCopy v0.95a5
#
DISCID=84117709
DTITLE=Zeng Zhao-Bin - Fishing in the Spring Tides (Di Solo by Zeng Zh
DTITLE=ao-Bin, a "Presidential Minstrel" in Mainland China
DYEAR=2000
DGENRE=Other
TTITLE0=Chinese Di-Blowing by A Cowherd
TTITLE1=Spring is Coming South to the Yang-zi River
TTITLE2=Fishing in the Spring Tides
TTITLE3=Fishing Melody of the River-country
TTITLE4=Flying of the Partridges
TTITLE5=The Fertile Pastures on Sinkiang Plateau
TTITLE6=Di Melody of Mei-hua-san-long
TTITLE7=Busy in Collecting Tealeaves
TTITLE8=The Lady named Lan-hua-hua (Di Concerto)
EXTD=
EXTT0=
EXTT1=
EXTT2=
EXTT3=
EXTT4=
EXTT5=
EXTT6=
EXTT7=
EXTT8=
PLAYORDER=
